<svg width="100" height="26" viewBox="0 0 100 26" fill="none" xmlns="http://www.w3.org/2000/svg">
<path d="M14.8458 11.8636C14.8565 11.0289 15.0782 10.2105 15.4903 9.48457C15.9023 8.75861 16.4912 8.14868 17.2023 7.7115C16.7506 7.06634 16.1547 6.5354 15.4618 6.16085C14.769 5.7863 13.9984 5.57845 13.2112 5.55382C11.5319 5.37756 9.90399 6.55865 9.04827 6.55865C8.17601 6.55865 6.8585 5.57132 5.43977 5.60051C4.5221 5.63016 3.62775 5.89701 2.84388 6.37507C2.06 6.85313 1.41332 7.52609 0.966855 8.32838C-0.967145 11.6768 0.475444 16.5979 2.32805 19.3045C3.25495 20.6298 4.33823 22.1103 5.75568 22.0578C7.14274 22.0002 7.66078 21.1733 9.33508 21.1733C10.9938 21.1733 11.4799 22.0578 12.9261 22.0244C14.4145 22.0002 15.3522 20.6931 16.2466 19.3552C16.9126 18.4109 17.425 17.3672 17.765 16.2627C16.9003 15.897 16.1624 15.2848 15.6433 14.5025C15.1241 13.7202 14.8468 12.8024 14.8458 11.8636Z" fill="white"/>
<path d="M12.1134 3.77382C12.9249 2.79961 13.3247 1.54744 13.2279 0.283203C11.9881 0.413424 10.8428 1.00598 10.0203 1.94281C9.61818 2.40048 9.31018 2.93291 9.11393 3.50968C8.91769 4.08645 8.83704 4.69625 8.87661 5.3042C9.49675 5.31059 10.1103 5.17618 10.6709 4.91109C11.2316 4.646 11.7248 4.25715 12.1134 3.77382Z" fill="white"/>
<path d="M32.3785 18.7027H27.6451L26.5084 22.0591H24.5035L28.9869 9.64111H31.0699L35.5533 22.0591H33.5143L32.3785 18.7027ZM28.1354 17.1538H31.8874L30.0378 11.7066H29.986L28.1354 17.1538Z" fill="white"/>
<path d="M45.235 17.5327C45.235 20.3462 43.7292 22.1538 41.4567 22.1538C40.881 22.1839 40.3085 22.0513 39.8047 21.7711C39.301 21.491 38.8862 21.0747 38.6081 20.5698H38.5651V25.0542H36.7067V13.0053H38.5055V14.5112H38.5397C38.8307 14.0087 39.2524 13.5945 39.76 13.3127C40.2676 13.0308 40.8422 12.8919 41.4225 12.9106C43.7203 12.9106 45.235 14.727 45.235 17.5327ZM43.3249 17.5327C43.3249 15.6997 42.3776 14.4946 40.9323 14.4946C39.5124 14.4946 38.5573 15.7251 38.5573 17.5327C38.5573 19.3569 39.5124 20.5786 40.9323 20.5786C42.3776 20.5786 43.3249 19.3823 43.3249 17.5327Z" fill="white"/>
<path d="M55.1999 17.5327C55.1999 20.3462 53.694 22.1538 51.4215 22.1538C50.8459 22.1839 50.2734 22.0513 49.7696 21.7711C49.2658 21.491 48.8511 21.0747 48.5729 20.5698H48.5299V25.0541H46.6715V13.0053H48.4703V14.5112H48.5045C48.7955 14.0087 49.2172 13.5945 49.7248 13.3127C50.2325 13.0308 50.807 12.8919 51.3873 12.9106C53.6852 12.9106 55.1999 14.727 55.1999 17.5327ZM53.2897 17.5327C53.2897 15.6997 52.3424 14.4946 50.8971 14.4946C49.4772 14.4946 48.5221 15.7251 48.5221 17.5327C48.5221 19.3569 49.4772 20.5786 50.8971 20.5786C52.3424 20.5786 53.2897 19.3823 53.2897 17.5327H53.2897Z" fill="white"/>
<path d="M61.7868 18.5992C61.9245 19.8306 63.1208 20.6392 64.7555 20.6392C66.3219 20.6392 67.4489 19.8306 67.4489 18.7202C67.4489 17.7564 66.7692 17.1792 65.1598 16.7837L63.5505 16.396C61.2702 15.8452 60.2116 14.7788 60.2116 13.0483C60.2116 10.9058 62.0788 9.43408 64.7301 9.43408C67.3541 9.43408 69.153 10.9058 69.2135 13.0483H67.3375C67.2252 11.8091 66.2008 11.061 64.7037 11.061C63.2067 11.061 62.1823 11.8179 62.1823 12.9194C62.1823 13.7974 62.8366 14.314 64.4371 14.7094L65.8053 15.0454C68.3531 15.6479 69.4118 16.6714 69.4118 18.4878C69.4118 20.811 67.5612 22.2661 64.6178 22.2661C61.8639 22.2661 60.0045 20.8452 59.8844 18.5991L61.7868 18.5992Z" fill="white"/>
<path d="M73.4235 10.8628V13.0054H75.1451V14.4771H73.4235V19.4683C73.4235 20.2437 73.7682 20.605 74.525 20.605C74.7294 20.6014 74.9335 20.5871 75.1363 20.562V22.0249C74.7961 22.0885 74.4502 22.1172 74.1041 22.1108C72.2711 22.1108 71.5563 21.4223 71.5563 19.6665V14.4771H70.2399V13.0054H71.5562V10.8628H73.4235Z" fill="white"/>
<path d="M76.1422 17.5327C76.1422 14.6841 77.8199 12.894 80.4362 12.894C83.0612 12.894 84.7311 14.684 84.7311 17.5327C84.7311 20.3892 83.0699 22.1714 80.4362 22.1714C77.8033 22.1714 76.1422 20.3892 76.1422 17.5327ZM82.8375 17.5327C82.8375 15.5786 81.942 14.4253 80.4361 14.4253C78.9303 14.4253 78.0358 15.5874 78.0358 17.5327C78.0358 19.4946 78.9303 20.6392 80.4361 20.6392C81.942 20.6392 82.8375 19.4946 82.8375 17.5327H82.8375Z" fill="white"/>
<path d="M86.2614 13.0055H88.0338V14.5465H88.0768C88.1967 14.0652 88.4787 13.6399 88.8753 13.342C89.2719 13.0441 89.7589 12.8918 90.2546 12.9108C90.4687 12.91 90.6823 12.9333 90.8913 12.9801V14.7184C90.6209 14.6358 90.3389 14.5978 90.0563 14.6061C89.7863 14.5951 89.5171 14.6427 89.2673 14.7456C89.0175 14.8485 88.7928 15.0042 88.6089 15.2021C88.4249 15.4 88.2859 15.6354 88.2015 15.892C88.1171 16.1487 88.0892 16.4206 88.1198 16.6891V22.0592H86.2614L86.2614 13.0055Z" fill="white"/>
<path d="M99.4615 19.3999C99.2115 21.0435 97.611 22.1714 95.5631 22.1714C92.9293 22.1714 91.2946 20.4067 91.2946 17.5757C91.2946 14.7358 92.9381 12.894 95.485 12.894C97.9899 12.894 99.5651 14.6147 99.5651 17.3599V17.9966H93.1705V18.1089C93.141 18.4421 93.1827 18.7778 93.2929 19.0936C93.4031 19.4094 93.5792 19.6982 93.8096 19.9408C94.0399 20.1833 94.3192 20.3741 94.629 20.5004C94.9387 20.6267 95.2718 20.6856 95.6061 20.6733C96.0452 20.7145 96.486 20.6128 96.8627 20.3833C97.2394 20.1539 97.532 19.809 97.6969 19.3999L99.4615 19.3999ZM93.1793 16.6978H97.7057C97.7224 16.3982 97.677 16.0983 97.5723 15.8171C97.4676 15.5359 97.3059 15.2794 97.0974 15.0636C96.8889 14.8479 96.638 14.6775 96.3605 14.5633C96.0831 14.4491 95.785 14.3935 95.485 14.3999C95.1824 14.3981 94.8824 14.4562 94.6023 14.571C94.3223 14.6857 94.0677 14.8548 93.8534 15.0684C93.639 15.2821 93.4691 15.536 93.3534 15.8157C93.2377 16.0953 93.1785 16.3951 93.1793 16.6978V16.6978Z" fill="white"/>
<path d="M27.903 0.29388C28.2926 0.265921 28.6835 0.324781 29.0476 0.466214C29.4118 0.607647 29.7399 0.828127 30.0085 1.11175C30.2771 1.39538 30.4794 1.73508 30.6008 2.10635C30.7222 2.47762 30.7597 2.87121 30.7106 3.25872C30.7106 5.16497 29.6803 6.26072 27.903 6.26072H25.7477V0.29388H27.903ZM26.6744 5.41688H27.7994C28.0778 5.43352 28.3564 5.38787 28.615 5.28326C28.8735 5.17865 29.1055 5.0177 29.294 4.81213C29.4825 4.60657 29.6228 4.36156 29.7046 4.09494C29.7865 3.82832 29.8079 3.5468 29.7672 3.27088C29.8049 2.99605 29.7814 2.71627 29.6982 2.45161C29.6151 2.18695 29.4745 1.94394 29.2864 1.74001C29.0984 1.53608 28.8675 1.37628 28.6104 1.27204C28.3534 1.1678 28.0764 1.12172 27.7994 1.13709H26.6744V5.41688Z" fill="white"/>
<path d="M31.7577 4.00728C31.7294 3.71136 31.7633 3.41279 31.8571 3.13072C31.951 2.84865 32.1027 2.58931 32.3026 2.36933C32.5026 2.14935 32.7463 1.97358 33.0182 1.8533C33.29 1.73303 33.584 1.6709 33.8813 1.6709C34.1785 1.6709 34.4725 1.73303 34.7444 1.8533C35.0162 1.97358 35.2599 2.14935 35.4599 2.36933C35.6598 2.58931 35.8116 2.84865 35.9054 3.13072C35.9993 3.41279 36.0331 3.71136 36.0048 4.00728C36.0336 4.3035 36.0002 4.60248 35.9066 4.885C35.813 5.16753 35.6613 5.42735 35.4614 5.64776C35.2614 5.86818 35.0175 6.04431 34.7453 6.16485C34.4732 6.28538 34.1789 6.34765 33.8813 6.34765C33.5836 6.34765 33.2893 6.28538 33.0172 6.16485C32.7451 6.04431 32.5012 5.86818 32.3012 5.64776C32.1012 5.42735 31.9495 5.16753 31.8559 4.885C31.7623 4.60248 31.7289 4.3035 31.7577 4.00728ZM35.0907 4.00728C35.0907 3.03121 34.6522 2.46041 33.8827 2.46041C33.1103 2.46041 32.6757 3.03121 32.6757 4.00729C32.6757 4.99118 33.1103 5.55758 33.8827 5.55758C34.6523 5.55757 35.0907 4.98726 35.0907 4.00728H35.0907Z" fill="white"/>
<path d="M41.65 6.26074H40.7281L39.7975 2.94433H39.7272L38.8004 6.26074H37.8873L36.6461 1.75781H37.5475L38.3541 5.19381H38.4205L39.3463 1.75781H40.1989L41.1246 5.19381H41.195L41.9977 1.75781H42.8863L41.65 6.26074Z" fill="white"/>
<path d="M43.9293 1.75786H44.7848V2.47319H44.8512C44.9639 2.21627 45.1539 2.00089 45.3947 1.85709C45.6356 1.71328 45.9153 1.64821 46.195 1.67094C46.414 1.65446 46.634 1.6875 46.8386 1.7676C47.0432 1.84769 47.2272 1.9728 47.3769 2.13364C47.5266 2.29448 47.6381 2.48694 47.7033 2.69676C47.7685 2.90658 47.7857 3.12839 47.7535 3.34574V6.26074H46.8649V3.5689C46.8649 2.84527 46.5504 2.4854 45.8932 2.4854C45.7444 2.47847 45.5959 2.50379 45.4579 2.55962C45.3198 2.61545 45.1955 2.70047 45.0933 2.80885C44.9912 2.91724 44.9137 3.04642 44.8662 3.18755C44.8187 3.32868 44.8022 3.47842 44.818 3.62651V6.26079H43.9293L43.9293 1.75786Z" fill="white"/>
<path d="M49.1696 0H50.0582V6.26074H49.1696V0Z" fill="white"/>
<path d="M51.2948 4.00736C51.2665 3.71142 51.3004 3.41284 51.3943 3.13076C51.4881 2.84868 51.6399 2.58933 51.8399 2.36934C52.0398 2.14935 52.2836 1.97358 52.5554 1.85331C52.8273 1.73303 53.1213 1.6709 53.4186 1.6709C53.7159 1.6709 54.0099 1.73303 54.2818 1.85331C54.5536 1.97358 54.7974 2.14935 54.9973 2.36934C55.1973 2.58933 55.3491 2.84868 55.4429 3.13076C55.5368 3.41284 55.5707 3.71142 55.5424 4.00736C55.5712 4.30359 55.5377 4.60258 55.4441 4.8851C55.3505 5.16763 55.1988 5.42744 54.9988 5.64785C54.7987 5.86826 54.5548 6.04438 54.2827 6.16491C54.0106 6.28544 53.7162 6.34771 53.4186 6.34771C53.121 6.34771 52.8266 6.28544 52.5545 6.16491C52.2823 6.04438 52.0384 5.86826 51.8384 5.64785C51.6384 5.42744 51.4867 5.16763 51.3931 4.8851C51.2995 4.60258 51.266 4.30359 51.2948 4.00736ZM54.6278 4.00736C54.6278 3.03129 54.1893 2.46049 53.4198 2.46049C52.6474 2.46049 52.2128 3.03129 52.2128 4.00737C52.2128 4.99126 52.6474 5.55766 53.4198 5.55766C54.1893 5.55765 54.6278 4.98734 54.6278 4.00736H54.6278Z" fill="white"/>
<path d="M56.4781 4.9873C56.4781 4.17675 57.0817 3.70947 58.1529 3.64306L59.3727 3.57275V3.18408C59.3727 2.70849 59.0582 2.43994 58.4508 2.43994C57.9547 2.43994 57.611 2.62207 57.5123 2.94043H56.652C56.7428 2.16699 57.4703 1.6709 58.4918 1.6709C59.6207 1.6709 60.2574 2.2329 60.2574 3.18408V6.26074H59.402V5.62793H59.3317C59.1889 5.85492 58.9885 6.03997 58.7509 6.16418C58.5133 6.28839 58.247 6.34731 57.9791 6.33493C57.7901 6.35459 57.599 6.33442 57.4183 6.27573C57.2375 6.21703 57.0711 6.1211 56.9296 5.99413C56.7882 5.86716 56.675 5.71197 56.5972 5.53855C56.5195 5.36514 56.4789 5.17735 56.4781 4.9873ZM59.3727 4.60253V4.22607L58.2731 4.29638C57.653 4.33788 57.3717 4.54882 57.3717 4.94579C57.3717 5.35106 57.7233 5.5869 58.2067 5.5869C58.3483 5.60124 58.4914 5.58694 58.6274 5.54484C58.7634 5.50275 58.8896 5.43374 58.9984 5.34189C59.1072 5.25005 59.1964 5.13727 59.2607 5.01025C59.325 4.88323 59.3631 4.74457 59.3727 4.60253Z" fill="white"/>
<path d="M61.4254 4.00734C61.4254 2.58449 62.1569 1.68312 63.2946 1.68312C63.576 1.67015 63.8553 1.73756 64.0998 1.87745C64.3443 2.01735 64.544 2.22395 64.6754 2.47312H64.7418V0H65.6305V6.26074H64.7789V5.54931H64.7086C64.567 5.7968 64.3604 6.00083 64.1112 6.13932C63.8619 6.2778 63.5795 6.34545 63.2946 6.33495C62.1491 6.335 61.4254 5.43361 61.4254 4.00734ZM62.3434 4.00734C62.3434 4.96242 62.7936 5.53713 63.5465 5.53713C64.2955 5.53713 64.7585 4.95413 64.7585 4.01125C64.7585 3.07277 64.2907 2.48146 63.5465 2.48146C62.7985 2.48146 62.3434 3.06007 62.3434 4.00734H62.3434Z" fill="white"/>
<path d="M69.3066 4.00728C69.2782 3.71136 69.3121 3.41279 69.4059 3.13072C69.4998 2.84865 69.6515 2.58931 69.8515 2.36933C70.0514 2.14935 70.2951 1.97358 70.567 1.8533C70.8388 1.73303 71.1328 1.6709 71.4301 1.6709C71.7274 1.6709 72.0213 1.73303 72.2932 1.8533C72.565 1.97358 72.8088 2.14935 73.0087 2.36933C73.2086 2.58931 73.3604 2.84865 73.4542 3.13072C73.5481 3.41279 73.5819 3.71136 73.5536 4.00728C73.5825 4.3035 73.549 4.60248 73.4554 4.885C73.3618 5.16753 73.2102 5.42735 73.0102 5.64776C72.8102 5.86818 72.5663 6.04431 72.2942 6.16485C72.022 6.28538 71.7277 6.34765 71.4301 6.34765C71.1325 6.34765 70.8381 6.28538 70.566 6.16485C70.2939 6.04431 70.05 5.86818 69.85 5.64776C69.65 5.42735 69.4983 5.16753 69.4047 4.885C69.3112 4.60248 69.2777 4.3035 69.3066 4.00728ZM72.6396 4.00728C72.6396 3.03121 72.2011 2.46041 71.4316 2.46041C70.6591 2.46041 70.2246 3.03121 70.2246 4.00729C70.2246 4.99118 70.6591 5.55758 71.4316 5.55758C72.2011 5.55757 72.6396 4.98726 72.6396 4.00728Z" fill="white"/>
<path d="M74.7457 1.75786H75.6012V2.47319H75.6676C75.7803 2.21627 75.9703 2.00089 76.2111 1.85709C76.452 1.71328 76.7317 1.64821 77.0114 1.67094C77.2305 1.65446 77.4505 1.6875 77.6551 1.7676C77.8597 1.84769 78.0436 1.9728 78.1933 2.13364C78.343 2.29448 78.4546 2.48694 78.5198 2.69676C78.585 2.90658 78.6021 3.12839 78.5699 3.34574V6.26074H77.6813V3.5689C77.6813 2.84527 77.3668 2.4854 76.7096 2.4854C76.5608 2.47847 76.4123 2.50379 76.2743 2.55962C76.1362 2.61545 76.0119 2.70047 75.9098 2.80885C75.8076 2.91724 75.7301 3.04642 75.6826 3.18755C75.6351 3.32868 75.6186 3.47842 75.6344 3.62651V6.26079H74.7457V1.75786Z" fill="white"/>
<path d="M83.5924 0.636719V1.77832H84.568V2.52686H83.5924V4.84229C83.5924 5.31397 83.7867 5.52051 84.2291 5.52051C84.3424 5.52015 84.4555 5.5133 84.568 5.5V6.24023C84.4084 6.26878 84.2467 6.28397 84.0846 6.28564C83.0963 6.28564 82.7028 5.93798 82.7028 5.06982V2.52682H81.9879V1.77828H82.7028V0.636719H83.5924Z" fill="white"/>
<path d="M85.7809 0H86.6617V2.48145H86.732C86.8502 2.22213 87.0454 2.00554 87.2911 1.86119C87.5368 1.71684 87.821 1.65176 88.105 1.67481C88.323 1.66295 88.5409 1.69934 88.7432 1.78138C88.9455 1.86342 89.1271 1.9891 89.2753 2.14943C89.4234 2.30977 89.5343 2.50082 89.6001 2.70896C89.6659 2.91709 89.6849 3.13718 89.6558 3.35352V6.26075H88.7663V3.57275C88.7663 2.85351 88.4313 2.48925 87.8034 2.48925C87.6506 2.47672 87.497 2.49772 87.3532 2.55077C87.2095 2.60383 87.079 2.68766 86.971 2.79639C86.863 2.90513 86.7801 3.03615 86.728 3.18029C86.676 3.32443 86.656 3.4782 86.6696 3.63085V6.26073H85.7809L85.7809 0Z" fill="white"/>
<path d="M94.8372 5.04499C94.7165 5.45653 94.4549 5.81252 94.0982 6.05067C93.7415 6.28882 93.3124 6.39397 92.886 6.34772C92.5894 6.35556 92.2945 6.29873 92.022 6.18121C91.7495 6.06368 91.5059 5.88826 91.308 5.66712C91.1101 5.44598 90.9626 5.18442 90.876 4.9006C90.7893 4.61678 90.7654 4.31749 90.8059 4.02351C90.7664 3.72863 90.7907 3.4287 90.8772 3.14402C90.9637 2.85935 91.1104 2.59658 91.3072 2.37351C91.5041 2.15044 91.7466 1.97227 92.0183 1.85106C92.29 1.72985 92.5846 1.66844 92.8821 1.67097C94.135 1.67097 94.8909 2.52697 94.8909 3.94097V4.25106H91.7112V4.30086C91.6973 4.46611 91.7181 4.63244 91.7722 4.78919C91.8263 4.94594 91.9126 5.08965 92.0255 5.2111C92.1384 5.33256 92.2755 5.42908 92.4278 5.49448C92.5802 5.55988 92.7446 5.59271 92.9104 5.59086C93.123 5.61638 93.3384 5.57811 93.5291 5.4809C93.7199 5.38369 93.8774 5.23195 93.9817 5.04496L94.8372 5.04499ZM91.7112 3.59382H93.9856C93.9968 3.4427 93.9763 3.2909 93.9253 3.14818C93.8744 3.00546 93.7941 2.87498 93.6897 2.76512C93.5853 2.65527 93.4591 2.56846 93.3192 2.51028C93.1793 2.45211 93.0287 2.42385 92.8772 2.42732C92.7235 2.42539 92.571 2.45425 92.4286 2.51219C92.2862 2.57014 92.1569 2.656 92.0482 2.76471C91.9396 2.87343 91.8538 3.00279 91.7959 3.14519C91.738 3.28758 91.7092 3.44013 91.7112 3.59382H91.7112Z" fill="white"/>
</svg>
