<svg width="116" height="28" viewBox="0 0 116 28" fill="none" xmlns="http://www.w3.org/2000/svg">
<path d="M61.1676 6.46633C60.2661 6.46633 59.5061 6.14963 58.9051 5.52618C58.3091 4.9202 57.9763 4.08479 57.9912 3.23192C57.9912 2.3217 58.2991 1.55112 58.9051 0.94015C59.5036 0.316709 60.2636 0 61.1651 0C62.0567 0 62.8167 0.316709 63.4276 0.94015C64.0336 1.57107 64.3415 2.34165 64.3415 3.23192C64.3316 4.14464 64.0237 4.91521 63.4276 5.52369C62.8291 6.15212 62.0691 6.46633 61.1676 6.46633ZM34.3431 6.46633C33.4615 6.46633 32.6965 6.15461 32.0707 5.53865C31.4498 4.92519 31.1344 4.14963 31.1344 3.23441C31.1344 2.3192 31.4498 1.54364 32.0707 0.930175C32.6841 0.314215 33.449 0.00249392 34.3431 0.00249392C34.7802 0.00249392 35.2049 0.0897759 35.6122 0.266833C36.012 0.438903 36.3374 0.673317 36.5783 0.9601L36.6379 1.03242L35.9648 1.69576L35.8953 1.61347C35.5153 1.1596 35.0062 0.937656 34.3332 0.937656C33.7322 0.937656 33.2081 1.15212 32.776 1.57606C32.3414 2.00249 32.1204 2.5611 32.1204 3.23691C32.1204 3.91272 32.3414 4.47132 32.776 4.89776C33.2081 5.3217 33.7322 5.53616 34.3332 5.53616C34.9739 5.53616 35.5128 5.3217 35.9326 4.89776C36.1809 4.64838 36.3349 4.29925 36.3895 3.85786H34.2313V2.92519H37.3159L37.3283 3.00998C37.3506 3.16708 37.373 3.32918 37.373 3.4788C37.373 4.33915 37.1147 5.03491 36.6031 5.54863C36.022 6.15711 35.262 6.46633 34.3431 6.46633ZM70.0089 6.33416H69.0577L66.1446 1.65337L66.1694 2.49626V6.33167H65.2182V0.134664H66.3035L66.3333 0.182045L69.0726 4.59102L69.0478 3.75062V0.134664H70.0089V6.33416ZM54.02 6.33416H53.0564V1.06733H51.385V0.134664H55.689V1.06733H54.0175V6.33416H54.02ZM50.6002 6.33416H49.6391V0.134664H50.6002V6.33416ZM45.1986 6.33416H44.2374V1.06733H42.566V0.134664H46.87V1.06733H45.1986V6.33416ZM41.9576 6.32419H38.272V0.134664H41.9576V1.06733H39.2356V2.76808H41.6918V3.69077H39.2356V5.39152H41.9576V6.32419ZM59.6104 4.88529C60.0401 5.31671 60.5616 5.53367 61.1676 5.53367C61.791 5.53367 62.3001 5.3217 62.7248 4.88529C63.147 4.46135 63.3605 3.90524 63.3605 3.23441C63.3605 2.56359 63.147 2.00499 62.7273 1.58354C62.2976 1.15212 61.7736 0.935162 61.1701 0.935162C60.5467 0.935162 60.0376 1.14713 59.6154 1.58354C59.1932 2.00748 58.9796 2.56359 58.9796 3.23441C58.9796 3.90524 59.1907 4.46384 59.6104 4.88529Z" fill="#FF553E"/>
<path fill-rule="evenodd" clip-rule="evenodd" d="M57.9013 14.9898C55.5543 14.9898 53.6519 16.7778 53.6519 19.2442C53.6519 21.688 55.5667 23.4985 57.9013 23.4985C60.2482 23.4985 62.1506 21.698 62.1506 19.2442C62.1506 16.7778 60.2482 14.9898 57.9013 14.9898ZM57.9013 21.8127C56.6173 21.8127 55.5121 20.7454 55.5121 19.2342C55.5121 17.7005 56.6198 16.6556 57.9013 16.6556C59.1853 16.6556 60.2904 17.7005 60.2904 19.2342C60.2929 20.7554 59.1853 21.8127 57.9013 21.8127ZM48.6302 14.9898C46.2833 14.9898 44.3809 16.7778 44.3809 19.2442C44.3809 21.688 46.2957 23.4985 48.6302 23.4985C50.9772 23.4985 52.8796 21.698 52.8796 19.2442C52.8796 16.7778 50.9747 14.9898 48.6302 14.9898ZM48.6302 21.8127C47.3462 21.8127 46.2411 20.7454 46.2411 19.2342C46.2411 17.7005 47.3487 16.6556 48.6302 16.6556C49.9142 16.6556 51.0194 17.7005 51.0194 19.2342C51.0194 20.7554 49.9142 21.8127 48.6302 21.8127ZM37.5983 16.289V18.0895H41.9023C41.7707 19.0995 41.4379 19.8452 40.9288 20.3564C40.298 20.9898 39.3244 21.6781 37.6083 21.6781C34.9633 21.6781 32.8945 19.5334 32.8945 16.8776C32.8945 14.2217 34.9633 12.0771 37.6083 12.0771C39.0363 12.0771 40.0769 12.6432 40.8493 13.3664L42.1209 12.0895C41.048 11.0571 39.6199 10.2666 37.6182 10.2666C33.9898 10.2666 30.9449 13.2342 30.9449 16.8676C30.9449 20.511 33.9873 23.4686 37.6182 23.4686C39.5777 23.4686 41.048 22.8252 42.2103 21.6132C43.3949 20.4237 43.7699 18.7454 43.7699 17.3913C43.7699 16.9698 43.7377 16.5908 43.6706 16.2691H37.5959C37.5983 16.2666 37.5983 16.289 37.5983 16.289ZM82.7218 17.6905C82.3666 16.7354 81.2937 14.9798 79.0933 14.9798C76.9128 14.9798 75.0998 16.703 75.0998 19.2342C75.0998 21.6232 76.8929 23.4885 79.3044 23.4885C81.2416 23.4885 82.3691 22.299 82.8335 21.6008L81.3955 20.6332C80.9187 21.3439 80.2556 21.8102 79.3143 21.8102C78.3631 21.8102 77.6976 21.3763 77.2555 20.521L82.9204 18.1644C82.9204 18.1669 82.7218 17.6905 82.7218 17.6905ZM76.945 19.112C76.9003 17.4686 78.2166 16.6332 79.1579 16.6332C79.9005 16.6332 80.5189 16.9998 80.73 17.5334L76.945 19.112ZM72.3431 23.2342H74.2032V10.7354H72.3431V23.2342ZM69.2883 15.9349H69.2212C68.8015 15.4337 68.0043 14.9798 66.9861 14.9798C64.8726 14.9798 62.9255 16.8476 62.9255 19.2466C62.9255 21.6357 64.8626 23.4811 66.9861 23.4811C67.9919 23.4811 68.8015 23.0247 69.2212 22.5135H69.2883V23.1245C69.2883 24.7479 68.424 25.6232 67.0308 25.6232C65.8908 25.6232 65.183 24.8003 64.8949 24.112L63.2781 24.7903C63.7426 25.9125 64.9818 27.3015 67.0283 27.3015C69.2088 27.3015 71.0566 26.0122 71.0566 22.8676V15.2342H69.2982V15.9349C69.3007 15.9349 69.2883 15.9349 69.2883 15.9349ZM67.1525 21.8127C65.8685 21.8127 64.7956 20.7354 64.7956 19.2466C64.7956 17.7454 65.8685 16.6581 67.1525 16.6581C68.424 16.6581 69.41 17.7579 69.41 19.2466C69.4224 20.7354 68.4265 21.8127 67.1525 21.8127ZM91.4315 10.7354H86.9835V23.2342H88.8437V18.501H91.434C93.4929 18.501 95.517 17.0023 95.517 14.6232C95.517 12.2442 93.5003 10.7354 91.4315 10.7354ZM91.4862 16.7554H88.8412V12.4661H91.4862C92.8794 12.4661 93.6667 13.6207 93.6667 14.6107C93.6667 15.5908 92.8695 16.7554 91.4862 16.7554ZM102.973 14.9673C101.621 14.9673 100.228 15.5683 99.652 16.8776L101.301 17.5659C101.656 16.8776 102.307 16.6432 102.995 16.6432C103.958 16.6432 104.932 17.2217 104.954 18.2541V18.3863C104.622 18.1968 103.891 17.9075 103.017 17.9075C101.237 17.9075 99.431 18.8851 99.431 20.718C99.431 22.3963 100.891 23.4736 102.518 23.4736C103.767 23.4736 104.455 22.9075 104.885 22.2516H104.952V23.2192H106.745V18.4312C106.745 16.2018 105.096 14.9673 102.973 14.9673ZM102.739 21.8127C102.131 21.8127 101.279 21.5135 101.279 20.7454C101.279 19.7778 102.342 19.4112 103.248 19.4112C104.068 19.4112 104.455 19.5883 104.942 19.8327C104.808 20.9549 103.864 21.8028 102.739 21.8127ZM113.287 15.2342L111.151 20.6556H111.084L108.871 15.2342H106.869L110.19 22.8127L108.297 27.0247H110.234L115.343 15.2342H113.287ZM96.5426 23.2342H98.4028V10.7354H96.5426V23.2342Z" fill="#FF553E"/>
<path d="M16.6038 17.3505L13.1175 13.82L16.6011 10.2721C19.0894 11.6607 20.9999 12.7216 21.367 12.9162C22.5525 13.5615 21.9501 14.3923 21.367 14.7063C21.2408 14.7698 20.1887 15.3553 18.6278 16.2238L18.6265 16.2246C18.3752 16.3644 18.1108 16.5116 17.835 16.6652C17.4457 16.882 17.0338 17.1114 16.6038 17.3505Z" fill="#FF553E"/>
<path d="M15.9691 17.7035L12.6272 14.3193L1.46004 25.6923C1.59461 25.6513 1.73743 25.5891 1.88994 25.5043C2.00418 25.441 2.28205 25.2873 2.69049 25.0614L2.71481 25.0479C5.01323 23.7767 11.3239 20.2862 15.9691 17.7035Z" fill="#FF553E"/>
<path d="M0.54767 25.6229C0.220008 25.3993 0.0484619 24.9316 0.0484619 24.3411V3.39114C0.0484619 2.73809 0.275853 2.33626 0.590777 2.13025L12.1356 13.8214L0.54767 25.6229Z" fill="#FF553E"/>
<path d="M1.44545 2L12.6258 13.3221L15.9549 9.93159C13.8906 8.79151 2.63532 2.57594 1.88975 2.17443C1.7481 2.08918 1.59722 2.03182 1.44545 2Z" fill="#FF553E"/>
</svg>
