<svg width="44" height="64" viewBox="0 0 44 64" fill="none" xmlns="http://www.w3.org/2000/svg">
<path d="M28.4392 35.445C37.7527 43.8002 43.2404 51.8367 43.9069 63.5774H0.0917969C0.758303 51.8368 6.24601 43.8002 15.5595 35.445L19.4028 31.9973L15.5595 28.5575C6.24601 20.2024 0.758303 12.1658 0.0917969 0.42514H43.9069C43.2404 12.1658 37.7527 20.2025 28.4392 28.5575L24.5961 31.9973L28.4392 35.445Z" fill="#F6F9F9"/>
<path d="M12.9579 49.4971C7.35885 52.3987 3.91016 57.7588 3.91016 63.5592H40.0879C40.0879 57.7586 36.6389 52.3987 31.04 49.4971L23.5385 45.6099C23.5385 36.1881 23.5385 33.8299 23.5385 24.408L28.8415 21.6601C32.4694 19.7801 34.9043 16.5363 35.5298 12.8869C35.6977 11.9074 34.8656 11.0177 33.7608 11.0177H10.2375C9.13257 11.0177 8.30038 11.9072 8.46839 12.8869C9.09395 16.5362 11.5291 19.7801 15.1568 21.6601L20.8276 24.5987C20.8276 33.8511 20.8276 36.1667 20.8275 45.4192L12.9579 49.4971Z" fill="#F7BE56"/>
</svg>
