<svg width="64" height="60" viewBox="0 0 64 60" fill="none" xmlns="http://www.w3.org/2000/svg">
<path d="M61.625 17.2505H59.5V10.8755C59.5 9.69821 58.548 8.75046 57.375 8.75046H6.375C2.86025 8.75046 0 11.6107 0 15.1255V53.3755C0 56.8902 2.86025 59.7505 6.375 59.7505H61.625C62.798 59.7505 63.75 58.7985 63.75 57.6255V19.3755C63.75 18.1982 62.798 17.2505 61.625 17.2505Z" fill="#FA855C"/>
<path d="M6.375 13.0005H55.25V17.2505H6.375C5.202 17.2505 4.25 16.2985 4.25 15.1255C4.25 13.9525 5.202 13.0005 6.375 13.0005Z" fill="#F8FEFE"/>
<path d="M54.4378 17.2502L46.5243 1.4232C45.9973 0.373451 44.7223 -0.0472993 43.6725 0.471201L10.123 17.2502H54.4378Z" fill="#F8FEFE"/>
<path d="M4.25 17.2504H45.9383L38.0247 1.42336C37.4977 0.373611 36.2228 -0.0471384 35.173 0.475611L4.25 15.9371V17.2504Z" fill="#E6EAE8"/>
</svg>
